HIERARCHY
ROOT reference
{
  OFFSET 0 0 0
  CHANNELS 6 Xposition Yposition Zposition Zrotation Xrotation Yrotation
  JOINT Hips
  {
    OFFSET 14.231 85.1937 190.066
    CHANNELS 6 Xposition Yposition Zposition Zrotation Xrotation Yrotation
    JOINT Spine
    {
      OFFSET 0 7.31558 0
      CHANNELS 6 Xposition Yposition Zposition Zrotation Xrotation Yrotation
      JOINT Spine1
      {
        OFFSET 0 21.7428 0
        CHANNELS 6 Xposition Yposition Zposition Zrotation Xrotation Yrotation
        JOINT Neck
        {
          OFFSET 0 21.6535 1.9685
          CHANNELS 6 Xposition Yposition Zposition Zrotation Xrotation Yrotation
          JOINT Head
          {
            OFFSET 0 12.49 -1.78429
            CHANNELS 6 Xposition Yposition Zposition Zrotation Xrotation Yrotation
            End Site
            {
              OFFSET 0 22.3036 0
            }
          }
        }
        JOINT LeftShoulder
        {
          OFFSET 3.56546 21.4407 -0.045508
          CHANNELS 6 Xposition Yposition Zposition Zrotation Xrotation Yrotation
          JOINT LeftArm
          {
            OFFSET 5.86532 0 0
            CHANNELS 6 Xposition Yposition Zposition Zrotation Xrotation Yrotation
            JOINT LeftForeArm
            {
              OFFSET 30.0831 0 0
              CHANNELS 6 Xposition Yposition Zposition Zrotation Xrotation Yrotation
              JOINT LeftHand
              {
                OFFSET 21.3133 0 0
                CHANNELS 6 Xposition Yposition Zposition Zrotation Xrotation Yrotation
                End Site
                {
                  OFFSET 13.3822 0 0
                }
              }
            }
          }
        }
        JOINT RightShoulder
        {
          OFFSET -3.55605 21.4407 -0.045508
          CHANNELS 6 Xposition Yposition Zposition Zrotation Xrotation Yrotation
          JOINT RightArm
          {
            OFFSET -5.86532 0 0
            CHANNELS 6 Xposition Yposition Zposition Zrotation Xrotation Yrotation
            JOINT RightForeArm
            {
              OFFSET -30.0831 0 0
              CHANNELS 6 Xposition Yposition Zposition Zrotation Xrotation Yrotation
              JOINT RightHand
              {
                OFFSET -21.3133 0 0
                CHANNELS 6 Xposition Yposition Zposition Zrotation Xrotation Yrotation
                End Site
                {
                  OFFSET -13.3822 0 0
                }
              }
            }
          }
        }
      }
    }
    JOINT LeftUpLeg
    {
      OFFSET 8.92144 0 0
      CHANNELS 6 Xposition Yposition Zposition Zrotation Xrotation Yrotation
      JOINT LeftLeg
      {
        OFFSET 0 -39.6329 0
        CHANNELS 6 Xposition Yposition Zposition Zrotation Xrotation Yrotation
        JOINT LeftFoot
        {
          OFFSET 0 -38.0584 0
          CHANNELS 6 Xposition Yposition Zposition Zrotation Xrotation Yrotation
          JOINT LeftToeBase
          {
            OFFSET 0 -5.79894 13.3822
            CHANNELS 6 Xposition Yposition Zposition Zrotation Xrotation Yrotation
            End Site
            {
              OFFSET 0 0 3.56858
            }
          }
        }
      }
    }
    JOINT RightUpLeg
    {
      OFFSET -8.92144 0 0
      CHANNELS 6 Xposition Yposition Zposition Zrotation Xrotation Yrotation
      JOINT RightLeg
      {
        OFFSET 0 -39.6329 0
        CHANNELS 6 Xposition Yposition Zposition Zrotation Xrotation Yrotation
        JOINT RightFoot
        {
          OFFSET 0 -38.0584 0
          CHANNELS 6 Xposition Yposition Zposition Zrotation Xrotation Yrotation
          JOINT RightToeBase
          {
            OFFSET 0 -5.79894 13.3822
            CHANNELS 6 Xposition Yposition Zposition Zrotation Xrotation Yrotation
            End Site
            {
              OFFSET 0 0 3.56858
            }
          }
        }
      }
    }
  }
}
MOTION
Frames:	11
Frame Time:	0.004
0 0 0 0 0 -0 -3.84774 62.4006 -148.654 3.79823 25.7071 -0.717403 -6.66134e-016 7.31558 0 -11.4631 31.541 6.31782 3.55271e-015 21.7428 0 -3.00561 5.291 3.2093 0 21.6535 1.9685 -1.372 -28.6433 -1.62062 3.55271e-015 12.49 -1.78429 -1.54766 -14.2419 -1.54454 3.56546 21.4407 -0.045508 5.50489 0.267058 -26.9432 5.86532 7.10543e-015 -1.42109e-014 -11.3043 26.7464 -43.6386 30.0831 -1.42109e-014 0 0.242597 -17.4505 -14.267 21.3133 0 0 21.3021 -14.125 18.0591 -3.55605 21.4407 -0.045508 4.13629 4.2833 16.8571 -5.86532 -1.42109e-014 0 14.5981 26.1719 39.5631 -30.0831 0 7.10543e-015 0.722053 -22.0336 17.3199 -21.3133 0 0 -20.4649 -21.4525 -4.07068 8.92144 7.10543e-015 0 -7.6585 -73.5478 -1.93905 8.88178e-016 -39.6329 0 -13.6409 65.9566 6.03553 -8.88178e-016 -38.0584 -1.42109e-014 10.6175 -27.2206 11.9375 0 -5.79894 13.3822 -4.41391e-032 -1.59028e-015 -1.59028e-015 -8.92144 0 -2.84217e-014 -12.8624 16.8539 -2.95477 0 -39.6329 0 4.73786 25.2234 -2.37676 7.10543e-015 -38.0584 0 14.4417 22.5447 -8.33481 0 -5.79894 13.3822 -3.18055e-015 -1.98785e-016 -3.8763e-015 
0 0 0 0 0 -0 -3.83863 62.0898 -148.66 4.08882 25.8375 -0.911514 -4.44089e-016 7.31558 2.84217e-014 -11.6395 31.7438 6.37861 -1.77636e-015 21.7428 0 -3.33116 4.98261 3.20357 0 21.6535 1.9685 -1.01334 -28.8512 -1.46867 -3.55271e-015 12.49 -1.78429 -1.96757 -13.9626 -1.63382 3.56546 21.4407 -0.045508 5.62058 0.34982 -26.7963 5.86532 -7.10543e-015 0 -11.0211 26.7195 -43.9787 30.0831 0 7.10543e-015 0.342381 -17.3379 -14.3447 21.3133 1.42109e-014 0 22.3196 -13.6661 18.9189 -3.55605 21.4407 -0.045508 4.01341 4.15595 17.1532 -5.86532 0 0 15.0401 26.1302 39.2874 -30.0831 0 -7.10543e-015 0.831096 -22.0122 17.1418 -21.3133 2.84217e-014 7.10543e-015 -20.614 -21.4423 -4.05774 8.92144 7.10543e-015 0 -8.01834 -74.1353 -2.02166 0 -39.6329 0 -13.9784 66.801 5.89918 0 -38.0584 -1.42109e-014 10.9966 -27.333 12.6476 0 -5.79894 13.3822 9.93923e-017 -1.59028e-015 1.59028e-015 -8.92144 1.42109e-014 0 -13.1639 17.352 -3.23364 -3.55271e-015 -39.6329 0 4.51847 24.519 -2.23072 3.55271e-015 -38.0584 1.42109e-014 14.4132 22.9815 -8.23996 0 -5.79894 13.3822 1.59028e-015 -1.98785e-016 1.68967e-015 
0 0 0 0 0 -0 -3.82942 61.7922 -148.743 4.25889 26.2781 -0.945313 -4.44089e-016 7.31558 0 -11.6336 31.7138 6.35611 -3.55271e-015 21.7428 0 -3.55347 4.68925 3.18665 3.55271e-015 21.6535 1.9685 -1.07374 -28.6883 -1.66781 0 12.49 -1.78429 -1.8894 -14.3842 -1.80452 3.56546 21.4407 -0.045508 5.61181 0.186904 -27.008 5.86532 0 0 -10.9166 26.8077 -44.0127 30.0831 0 -7.10543e-015 0.387558 -17.3122 -14.3084 21.3133 0 -7.10543e-015 22.3339 -13.6681 18.7365 -3.55605 21.4407 -0.045508 4.07459 4.02974 17.1505 -5.86532 0 0 15.1386 25.9589 39.2357 -30.0831 1.42109e-014 -7.10543e-015 1.13122 -21.8541 16.932 -21.3133 0 0 -20.7338 -21.3021 -4.16103 8.92144 -1.42109e-014 0 -8.95986 -75.177 -2.60926 0 -39.6329 7.10543e-015 -13.785 67.7365 5.42759 1.77636e-015 -38.0584 0 10.9803 -27.1228 12.9572 0 -5.79894 13.3822 5.96354e-016 1.59028e-015 7.95139e-016 -8.92144 0 0 -13.3087 17.4409 -3.4972 -3.55271e-015 -39.6329 0 4.29119 24.0021 -2.03561 -3.55271e-015 -38.0584 0 14.1834 23.7222 -7.91817 0 -5.79894 13.3822 1.59028e-015 0 -1.2921e-015 
0 0 0 0 0 -0 -3.83252 61.4811 -148.77 4.46026 26.464 -1.06072 4.44089e-016 7.31558 0 -11.7976 31.8196 6.45173 -1.77636e-015 21.7428 0 -3.64744 4.5501 3.22282 -3.55271e-015 21.6535 1.9685 -1.33667 -28.8651 -1.87798 7.10543e-015 12.49 -1.78429 -1.6947 -14.3746 -1.86425 3.56546 21.4407 -0.045508 5.71971 0.06571 -26.974 5.86532 0 -1.42109e-014 -11.0471 26.5509 -44.2523 30.0831 0 0 0.403454 -17.0365 -14.2023 21.3133 0 0 22.367 -13.3945 18.6654 -3.55605 21.4407 -0.045508 4.15401 4.24167 16.8897 -5.86532 0 0 14.8818 25.5507 39.5628 -30.0831 0 0 1.33895 -21.7796 16.7855 -21.3133 0 0 -20.9079 -21.2087 -4.39169 8.92144 -7.10543e-015 -2.84217e-014 -9.38323 -75.8682 -3.26531 0 -39.6329 7.10543e-015 -15.2762 68.4979 6.52322 1.77636e-015 -38.0584 1.42109e-014 11.3795 -27.1521 13.6324 0 -5.79894 13.3822 9.93923e-017 0 -0 -8.92144 7.10543e-015 0 -13.4874 17.7832 -3.56455 3.55271e-015 -39.6329 0 4.1719 23.4224 -2.24543 0 -38.0584 -1.42109e-014 14.1151 24.1454 -7.47621 -1.42109e-014 -5.79894 13.3822 -3.18055e-015 -1.19271e-015 -3.8763e-015 
0 0 0 0 0 -0 -3.82907 61.1766 -148.816 4.64856 26.706 -1.18122 0 7.31558 0 -11.9923 31.8784 6.53058 0 21.7428 0 -3.66858 4.35051 3.23342 -3.55271e-015 21.6535 1.9685 -1.43791 -28.8585 -1.92512 0 12.49 -1.78429 -1.68412 -14.6081 -1.87311 3.56546 21.4407 -0.045508 5.56674 0.129338 -27.1211 5.86532 -7.10543e-015 0 -10.8184 26.4572 -44.2278 30.0831 0 -7.10543e-015 0.438311 -16.9855 -14.3213 21.3133 0 0 22.4424 -13.3129 18.728 -3.55605 21.4407 -0.045508 3.87877 4.05833 17.0966 -5.86532 -1.42109e-014 2.84217e-014 15.2675 25.53 39.334 -30.0831 0 0 1.42633 -21.6999 16.6688 -21.3133 1.42109e-014 7.10543e-015 -21.142 -21.1046 -4.5406 8.92144 0 0 -9.58176 -76.5755 -3.63709 0 -39.6329 -7.10543e-015 -16.8437 69.1541 7.50912 1.77636e-015 -38.0584 0 11.7809 -27.17 14.3944 1.77636e-015 -5.79894 13.3822 -0 -1.59028e-015 -0 -8.92144 7.10543e-015 0 -13.6623 18.0477 -3.47445 3.55271e-015 -39.6329 0 4.06378 22.9083 -2.33127 0 -38.0584 1.42109e-014 14.5088 24.4829 -7.54308 1.42109e-014 -5.79894 13.3822 1.59028e-015 3.97569e-016 2.78299e-015 
0 0 0 0 0 -0 -3.82442 60.8731 -148.85 4.84992 26.8825 -1.33107 -8.88178e-016 7.31558 0 -12.1914 32.2448 6.69339 1.77636e-015 21.7428 0 -3.89343 3.53572 3.27725 0 21.6535 1.9685 -0.934216 -28.7089 -1.8521 0 12.49 -1.78429 -2.27487 -14.4383 -2.15468 3.56546 21.4407 -0.045508 5.49922 0.378885 -27.6136 5.86532 0 2.84217e-014 -10.7538 26.5112 -44.0505 30.0831 -1.42109e-014 7.10543e-015 0.581746 -16.8832 -14.1926 21.3133 1.42109e-014 0 22.6054 -13.1269 18.917 -3.55605 21.4407 -0.045508 4.39233 4.19451 17.2428 -5.86532 0 -1.42109e-014 15.1009 25.7305 38.9139 -30.0831 0 -7.10543e-015 1.46029 -21.6846 16.4904 -21.3133 0 0 -20.7504 -21.1366 -4.36599 8.92144 -7.10543e-015 -2.84217e-014 -9.95049 -77.2097 -3.98902 8.88178e-016 -39.6329 7.10543e-015 -17.8216 69.8643 8.2783 0 -38.0584 -1.42109e-014 12.0749 -27.2905 14.8431 0 -5.79894 13.3822 9.93923e-017 3.18055e-015 1.59028e-015 -8.92144 0 -2.84217e-014 -13.8526 18.3364 -3.45238 0 -39.6329 0 3.99676 22.3944 -2.46421 -3.55271e-015 -38.0584 0 14.5086 24.8215 -7.56208 0 -5.79894 13.3822 -1.59028e-015 -3.97569e-016 9.93923e-017 
0 0 0 0 0 -0 -3.8203 60.5615 -148.899 5.0546 27.0801 -1.48223 0 7.31558 0 -12.4498 32.3565 6.80139 1.77636e-015 21.7428 0 -3.81298 3.32341 3.28701 3.55271e-015 21.6535 1.9685 -1.02748 -29.0722 -2.01401 0 12.49 -1.78429 -2.41351 -13.9993 -2.31029 3.56546 21.4407 -0.045508 5.20486 -0.039331 -27.6343 5.86532 -1.42109e-014 1.42109e-014 -10.9323 26.4776 -44.0195 30.0831 0 7.10543e-015 0.20102 -16.7311 -14.2665 21.3133 0 0 23.5372 -12.8177 19.1208 -3.55605 21.4407 -0.045508 4.42585 4.35037 17.1701 -5.86532 0 1.42109e-014 14.8177 25.4377 39.1173 -30.0831 0 0 1.67604 -21.6156 16.2927 -21.3133 0 0 -21.094 -21.0618 -4.47744 8.92144 0 0 -10.396 -77.8869 -4.39749 0 -39.6329 0 -18.8432 70.5766 9.18394 1.77636e-015 -38.0584 -1.42109e-014 12.0442 -27.4033 15.0983 0 -5.79894 13.3822 0 0 -7.95139e-016 -8.92144 7.10543e-015 0 -14.0495 18.5851 -3.47998 0 -39.6329 -2.84217e-014 3.89673 21.9106 -2.78004 0 -38.0584 1.42109e-014 14.5395 25.2104 -7.41458 0 -5.79894 13.3822 -6.89673e-033 3.97569e-016 9.93923e-016 
0 0 0 0 0 -0 -3.81937 60.252 -148.943 5.24542 27.2154 -1.60625 -4.44089e-016 7.31558 0 -12.5142 32.5234 6.8624 1.77636e-015 21.7428 0 -4.06363 3.14774 3.31037 0 21.6535 1.9685 -1.0232 -29.1443 -2.05402 0 12.49 -1.78429 -2.48353 -14.1056 -2.37346 3.56546 21.4407 -0.045508 5.32668 0.057845 -27.8944 5.86532 7.10543e-015 0 -10.7905 26.2984 -43.9933 30.0831 0 0 0.316242 -16.6626 -14.2928 21.3133 1.42109e-014 0 23.3464 -12.7925 18.9958 -3.55605 21.4407 -0.045508 4.28194 4.12653 17.4271 -5.86532 -1.42109e-014 0 15.2733 25.3913 38.7609 -30.0831 -1.42109e-014 7.10543e-015 1.7888 -21.6695 16.202 -21.3133 0 0 -21.3565 -21.1064 -4.55316 8.92144 0 0 -10.818 -78.4825 -4.76108 0 -39.6329 1.42109e-014 -19.702 71.2194 9.81886 0 -38.0584 0 12.2529 -27.5279 15.4226 0 -5.79894 13.3822 -4.41391e-032 3.18055e-015 7.95139e-016 -8.92144 7.10543e-015 2.84217e-014 -14.2278 18.8707 -3.46022 7.10543e-015 -39.6329 0 3.80418 21.4066 -3.53945 -3.55271e-015 -38.0584 0 14.2146 25.9127 -7.0739 0 -5.79894 13.3822 -0 0 1.59028e-015 
0 0 0 0 0 -0 -3.83229 59.946 -148.973 5.3758 27.2766 -1.71698 8.88178e-016 7.31558 2.84217e-014 -12.676 32.7522 6.97473 1.77636e-015 21.7428 0 -4.1004 3.02075 3.34388 3.55271e-015 21.6535 1.9685 -1.30853 -29.0768 -2.15558 0 12.49 -1.78429 -2.28515 -14.5684 -2.32145 3.56546 21.4407 -0.045508 5.39483 0.002331 -27.8433 5.86532 2.13163e-014 0 -10.5624 26.3582 -44.2746 30.0831 -2.84217e-014 7.10543e-015 0.503102 -16.6642 -14.2936 21.3133 0 0 22.9685 -12.8524 18.9133 -3.55605 21.4407 -0.045508 4.01822 4.15344 17.2671 -5.86532 0 0 15.282 25.2526 39.0699 -30.0831 0 0 1.88005 -21.6194 16.0798 -21.3133 0 0 -21.4832 -21.0251 -4.75823 8.92144 -7.10543e-015 0 -10.9408 -79.0069 -4.83875 0 -39.6329 -7.10543e-015 -20.682 71.9133 10.6042 0 -38.0584 0 12.4612 -27.6689 15.7431 1.77636e-015 -5.79894 13.3822 1.98785e-016 -4.77083e-015 7.95139e-016 -8.92144 -7.10543e-015 0 -14.3601 19.1834 -3.20654 5.32907e-015 -39.6329 -2.84217e-014 3.80402 21.0377 -3.68168 0 -38.0584 1.42109e-014 14.1411 26.2536 -6.99551 -1.42109e-014 -5.79894 13.3822 1.59028e-015 0 7.95139e-016 
0 0 0 0 0 -0 -3.83211 59.6465 -149.021 5.57215 27.3956 -1.83638 -8.88178e-016 7.31558 0 -12.8444 32.9438 7.03265 -3.55271e-015 21.7428 -2.84217e-014 -4.18575 2.82747 3.3235 3.55271e-015 21.6535 1.9685 -1.54478 -29.0775 -2.29649 0 12.49 -1.78429 -2.01608 -14.7778 -2.30463 3.56546 21.4407 -0.045508 5.34704 -0.345456 -27.8136 5.86532 0 -1.42109e-014 -10.6168 26.5359 -44.3454 30.0831 1.42109e-014 7.10543e-015 0.517477 -16.6235 -14.2713 21.3133 -1.42109e-014 -7.10543e-015 22.8683 -12.8711 18.6928 -3.55605 21.4407 -0.045508 4.1649 4.32795 17.1581 -5.86532 -1.42109e-014 -1.42109e-014 14.7311 25.1649 39.3901 -30.0831 -1.42109e-014 0 2.12474 -21.7427 16.0225 -21.3133 -1.42109e-014 -7.10543e-015 -22.0259 -21.0745 -5.21874 8.92144 2.13163e-014 0 -11.5018 -79.6317 -4.91834 0 -39.6329 7.10543e-015 -20.559 72.7563 10.347 1.77636e-015 -38.0584 1.42109e-014 12.5216 -27.6614 15.9424 0 -5.79894 13.3822 9.93923e-017 3.18055e-015 7.95139e-016 -8.92144 7.10543e-015 -2.84217e-014 -14.5304 19.4659 -3.31802 0 -39.6329 2.84217e-014 3.68944 20.6366 -3.53678 0 -38.0584 0 14.1263 26.3773 -7.07376 -1.42109e-014 -5.79894 13.3822 1.59028e-015 7.95139e-016 -1.98785e-015 
0 0 0 0 0 -0 -3.82315 59.3374 -149.085 5.78485 27.5626 -1.97083 4.44089e-016 7.31558 0 -13.0926 33.0228 7.14251 0 21.7428 -1.42109e-014 -4.10092 2.71752 3.34325 0 21.6535 1.9685 -1.48124 -29.2902 -2.28223 3.55271e-015 12.49 -1.78429 -2.39099 -14.6887 -2.41118 3.56546 21.4407 -0.045508 5.12139 -0.489335 -27.9977 5.86532 -7.10543e-015 0 -10.4471 26.6843 -44.3291 30.0831 0 0 0.708619 -16.7756 -14.2886 21.3133 0 0 22.8588 -12.8914 19.2478 -3.55605 21.4407 -0.045508 3.82678 3.94026 17.3708 -5.86532 -1.42109e-014 0 15.2238 25.2722 39.084 -30.0831 0 0 2.2315 -21.751 15.8985 -21.3133 1.42109e-014 0 -22.0498 -21.1286 -5.02651 8.92144 0 0 -12.2004 -80.2968 -5.2848 0 -39.6329 7.10543e-015 -20.915 73.5062 10.6942 1.77636e-015 -38.0584 1.42109e-014 12.5638 -27.714 16.0491 0 -5.79894 13.3822 4.41391e-032 3.18055e-015 -7.95139e-016 -8.92144 7.10543e-015 2.84217e-014 -14.7564 19.6456 -3.30118 1.77636e-015 -39.6329 0 3.67251 20.3042 -3.66537 0 -38.0584 -1.42109e-014 13.8211 26.5659 -6.83433 0 -5.79894 13.3822 -1.59028e-015 0 1.59028e-015 
